<svg xmlns="http://www.w3.org/2000/svg" xmlns:xlink="http://www.w3.org/1999/xlink" version="1.0" id="Layer_1" width="800px" height="800px" viewBox="0 0 64 64" enable-background="new 0 0 64 64" xml:space="preserve">
<g>
	<path fill="#231F20" d="M60,0H4C1.789,0,0,1.789,0,4v56c0,2.211,1.789,4,4,4h56c2.211,0,4-1.789,4-4V4C64,1.789,62.211,0,60,0z    M56,32H44c-2.211,0-4,1.789-4,4v4H24v-4c0-2.211-1.789-4-4-4H8V8h48V32z"/>
    <path fill="#231F20" d="M20,24h24c2.211,0,4-1.789,4-4s-1.789-4-4-4H20c-2.211,0-4,1.789-4,4S17.789,24,20,24z"/>
</g>
</svg>